<svg xmlns="http://www.w3.org/2000/svg" version="1" viewBox="0 0 25.772 25.598">
  <path fill="#2ecc40" d="M25.646 13.653l-1.519-2.396.901-2.689c.122-.367-.03-.77-.365-.962l-2.458-1.417-.452-2.8c-.063-.382-.385-.667-.771-.683l-2.835-.111-1.701-2.27c-.232-.31-.652-.413-.999-.246l-2.561 1.218L10.324.078c-.348-.165-.766-.062-.999.247l-1.701 2.27-2.835.111c-.385.015-.708.3-.77.682l-.452 2.8-2.458 1.417c-.335.192-.488.595-.366.962l.901 2.689-1.518 2.397c-.207.327-.154.754.125 1.022l2.047 1.963-.23 2.826c-.031.387.213.74.584.848l2.725.785 1.109 2.611c.152.355.533.561.911.479l2.78-.57 2.194 1.797c.149.121.332.184.515.184s.365-.063.515-.184l2.194-1.797 2.78.57c.377.08.76-.123.911-.479l1.109-2.611 2.725-.785c.371-.107.615-.461.584-.848l-.23-2.826 2.047-1.963c.279-.268.332-.695.125-1.022zm-6.883-3.911l-5.691 8.526c-.215.318-.548.531-.879.531-.33 0-.699-.185-.934-.421l-4.178-4.245c-.285-.29-.285-.76 0-1.05l1.031-1.05c.285-.286.748-.286 1.031 0l2.719 2.762 4.484-6.718c.225-.339.682-.425 1.014-.196l1.209.831c.333.23.419.693.194 1.03z"/>
</svg>
