<svg xmlns="http://www.w3.org/2000/svg" id="svg2" viewBox="-498 388.4 26.09884 25.60405">
  <path fill="#ff4136" id="path7" d="M-472.0606 402.10405l-1.5-2.4.9-2.7c.1-.4 0-.8-.4-1l-2.5-1.4-.5-2.8c-.1-.4-.4-.7-.8-.7l-2.8-.1-1.7-2.3c-.2-.3-.7-.4-1-.2l-2.6 1.2-2.6-1.2c-.3-.2-.8-.1-1 .2l-1.7 2.3-2.8.1c-.4 0-.7.3-.8.7l-.5 2.8-2.5 1.4c-.3.2-.5.6-.4 1l.9 2.7-1.5 2.4c-.2.3-.2.8.1 1l2 2-.2 2.8c0 .4.2.7.6.8l2.7.8 1.1 2.6c.2.4.5.6.9.5l2.8-.6 2.2 1.8c.1.1.3.2.5.2s.4-.1.5-.2l2.2-1.8 2.8.6c.4.1.8-.1.9-.5l1.1-2.6 2.7-.8c.4-.1.6-.5.6-.8l-.2-2.8 2-2c.7-.3.8-.7.5-1z"/>
  <g id="Layer_2">
    <g id="g14">
      <path id="path16" fill="#fff" d="M-488.7 395.50405l9.1 8.4c.3.3.5.8.5 1.1-.1.4-.4.8-.7 1l-.8.6c-.4.3-2-.7-2.3-1.1l-.3-.2c-.3-.3-.5-.4-.8-.6l-7.2-6.6c-.4-.3-.4-.9 0-1.2l1.2-1.3c.4-.5 1-.5 1.3-.1z" class="st4"/>
      <g id="g18">
        <path id="path20" fill="#fff" d="M-479.8 397.10405l-7.3 9.8c-.3.4-.7.6-1.2.6-.4 0-.9-.2-1.3-.4l-.8-.6c-.4-.3.4-1.9.8-2.3l.2-.3c.2-.4.3-.6.5-.8l5.8-7.7c.3-.4.9-.5 1.4-.3l1.6.9c.4.2.5.7.3 1.1z" class="st4"/>
      </g>
    </g>
  </g>
</svg>
