<svg xmlns="http://www.w3.org/2000/svg" width="517.66406" height="178.35938">
  <path d="M35.039065-.0000025H135.58594l-3.984375 19.921875h-76.875l-10.3125 51.5625h69.375l-3.984375 19.921875h-69.375L23.6718775 174.960935H.0000025L35.039065-.0000025"/>
  <path d="M134.29674-.0000025h23.7890625L136.7576775 106.28906c-3.75005 18.75005-3.0469375 32.2656625 2.109375 40.546875 5.1561875 8.20315 15.3514875 12.3047125 30.5859375 12.3046875 15.1561375.000025 26.953-4.1015375 35.390625-12.3046875 8.4373625-8.2812125 14.5311125-21.796825 18.28125-40.546875L244.45299-.0000025h23.7890625l-21.9140625 109.21875c-4.5314125 22.81255-13.6329625 40.0390875-27.3046875 51.6796875-13.593875 11.6406375-31.4063625 17.4609375-53.4375 17.4609375-22.1094375 0-37.6563-5.8203-46.640625-17.4609375-8.9062875-11.6406-11.093775-28.8671375-6.5625-51.6796875L134.29674-.0000025"/>
  <path d="M267.098515-.0000025h137.4609375l-3.6328125 18.046875L262.879765 155.03906h113.3203125l-3.984375 19.921875H229.36414l3.6328125-18.046875 138.046875-136.9921875H263.11414l3.984375-19.921875"/>
  <path d="M407.03909-.0000025h110.625l-3.984375 19.921875H426.72659l-10.4296875 51.796875h83.3203125l-3.984375 19.921875h-83.3203125l-12.65625 63.3984375h89.0625l-3.984375 19.921875h-112.734375L407.03909-.0000025"/>
</svg>
