<svg xmlns="http://www.w3.org/2000/svg" width="275" height="275">
  <defs>
    <clipPath id="a">
      <path d="M0 1107.789h3061.957V0H0v1107.789z"/>
    </clipPath>
    <clipPath id="b">
      <path d="M0 1107.789h3061.957V0H0v1107.789z"/>
    </clipPath>
    <clipPath id="c">
      <path d="M0 1107.789h3061.957V0H0v1107.789z"/>
    </clipPath>
  </defs>
  <g clip-path="url(#a)" transform="matrix(1.25 0 0 -1.25 -70.59 1359.5)">
    <path fill="#6bc0b1" d="M276.1004 977.2271c0-60.545-49.082-109.627-109.627-109.627-60.546 0-109.627 49.082-109.627 109.627 0 60.545 49.081 109.627 109.627 109.627 60.545 0 109.627-49.082 109.627-109.627"/>
  </g>
  <g fill="#fff" clip-path="url(#b)" transform="matrix(1.25 0 0 -1.25 -64.91 1359.5)">
    <path d="M22.3013 893.038c125.027-16.491 186.603 99.101037 152.098 172.37304m-.0003-.04374c-104.667-.094-154.719-102.078-152.098-173.12"/>
    <path stroke="#fff" stroke-miterlimit="10" d="M139.186375 891.9394117C264.21338 875.448412 326.199 991.3055 291.694 1064.5775m-.0003-.0005c-104.667-.094-154.719-102.078-152.098-173.12"/>
  </g>
  <g clip-path="url(#c)" transform="matrix(1.25 0 0 -1.25 -58.24 1359.5)">
    <path fill="#6ce6cb" stroke="#2b2b2a" stroke-width=".8" stroke-miterlimit="10" d="M174.96305 956.4044c1.89185-2.1391 4.68585-12.9241 11.42775-24.18905 1.3119 4.40805 3.1049 5.85405 3.2647 9.98095-8.7362 4.6989-17.1822 25.1699-8.4781 37.90585 24.0991 26.25995 48.0511 29.95395 49.2224 29.04755.8423-6.7194 20.9513-83.8044-33.17435-69.84365 4.17235 17.89375 10.55835 36.95275 23.11635 54.3755-18.815-11.07125-22.945-42.64625-31.659-64.86725-.864-5.279-3.117-5.777-4.28015-3.2946-16.40315 44.6844-44.11915 78.073964-62.9012 93.570776C148.8294 996.716288 148.2684 941.1771 167.5174 943.8671c-55.754-33.249-76.467 48.751-64.59715 96.74405 38.77185-3.88595 78.91685-22.032674 85.9799-48.004662-6.97595-2.796988-20.10695-15.874988-13.9371-36.202088z"/>
  </g>
</svg>
