<svg xmlns="http://www.w3.org/2000/svg" viewBox="0 0 99.99952 77.336758">
  <path d="M81.556 27.709c-5.479-.221-10.96-.439-16.44-.658l-12.139-.484c-.141-.006-.255-.01-.349-.01-.03.087-.068.196-.122.329.091.048.183.094.239.123.12.06.218.111.269.143l28.737 18.141c.526.333 1.268.524 2.036.524.706 0 1.371-.159 1.872-.447.336-.192.635-.466.914-.833 2.253-4.157 3.811-8.599 4.629-13.202-.003-.315-.044-.589-.125-.835-.313-.937-1.085-1.49-1.677-1.789-.761-.385-2.096-.772-2.749-.798-1.699-.07-3.397-.138-5.095-.204zm-30.608 1.293l15.034 29.839c.66 1.308 1.956 2.706 3.611 2.706.433 0 .871-.099 1.305-.294.591-.374 1.195-.775 1.796-1.194.023-.018.062-.047.103-.074 2.391-1.678 4.63-3.597 6.652-5.7.017-.021.037-.046.063-.072.016-.016.032-.031.048-.046.644-.673 1.302-1.413 2.008-2.26.016-.024.032-.049.048-.073l.021-.03c.983-2.075-.746-3.848-1.536-4.514-.779-.659-1.67-1.293-2.979-2.119l-8.418-5.315c-2.87-1.812-5.74-3.623-8.609-5.436l-2.126-1.342c-1.743-1.101-3.487-2.201-5.23-3.302l-1.568-.989c-.062.066-.134.14-.223.215zm-7.061-.245l.033-.048c-.061-.069-.111-.127-.154-.175L20.413 40.297c-1.656.833-3.312 1.668-4.968 2.502l-2.07 1.043c-1.653.833-3.569 2.041-3.705 4.011-.008.115-.005.236.008.372 2.656 4.368 6.055 8.159 10.108 11.271.259.081.515.12.779.12.173 0 .353-.018.536-.052.748-.142 1.506-.55 2.255-1.213.992-.88 1.604-1.782 2.381-2.924l.139-.204c1.513-2.226 3.027-4.45 4.542-6.676l12.02-17.659c.484-.71.966-1.42 1.449-2.131zm9.012-4.537c.855.035 1.715.068 2.572.102 6.846.273 13.691.547 20.536.821 2.624.104 5.248.209 7.872.313l1.228.05c.266.01.529.024.79.039.479.027.933.052 1.382.052 1.03 0 1.815-.145 2.546-.468 1.318-.583 1.936-1.559 1.998-3.161-.208-4.435-1.129-8.785-2.737-12.931-.235-.37-.514-.639-.871-.845-.51-.291-1.07-.434-1.714-.434-1.332 0-2.748.636-3.697 1.113L56.808 21.968c-1.355.682-2.711 1.363-4.065 2.046.009.064.019.135.029.2l.127.006zm-4.105 5.789c-.089.026-.188.061-.262.087-.055.719-.108 1.435-.161 2.148l-.65 8.742c-.451 6.047-.9 12.092-1.35 18.137l-.167 2.238c-.027.364-.068.74-.108 1.104-.118 1.066-.24 2.17-.023 3.132.179.791.592 1.855 1.547 2.432.25.15.524.253.86.319 4.911-.23 9.735-1.25 14.337-3.032.589-.358.991-.817 1.228-1.401.605-1.485.062-3.516-.585-4.802L48.794 30.009zm-2.908-.041c-.008.014-.017.027-.025.041-.06.096-.133.213-.229.354L29.402 54.21c-1.09 1.601-2.179 3.201-3.269 4.803-.646.948-.915 2.389-.64 3.425.108.407.299.753.583 1.056 4.389 2.273 9.132 3.778 14.101 4.472 1.024-.104 1.774-.556 2.358-1.417.509-.751 1.085-2.288 1.141-3.045l.186-2.496c.755-10.145 1.51-20.288 2.264-30.434.012-.164.037-.313.056-.433.004-.028.01-.061.015-.093l-.1-.025c-.074-.02-.148-.04-.211-.055z"/>
  <path d="M98.785 15.071c-.792-4.833-2.309-9.616-4.609-14.204L93.741 0 0 46.724l.442.874c.266.524.534 1.045.812 1.568 2.843 5.266 6.569 9.886 10.95 13.729C27.172 77.72 50.903 81.95 71.272 71.737c21.69-10.875 32.54-34.599 27.513-56.666zM69.317 68.134c-7.275 3.647-15.038 5.497-23.071 5.497-18.241 0-34.825-9.729-43.276-25.382-.116-.219-.231-.438-.345-.658l58.413-29.116L82.257 7.787c.489-.246 1.094-.53 1.759-.765l8.848-4.409c11.427 23.988 1.009 53.209-23.547 65.521z"/>
</svg>
